<svg width="386" height="383" viewBox="0 0 386 383" fill="none" xmlns="http://www.w3.org/2000/svg">
<rect x="0.029541" y="0.601074" width="385.745" height="382.291" rx="23.0296" fill="#F3FFF0"/>
<rect x="81.7844" y="244.714" width="130.117" height="138.177" fill="#0B4D43"/>
<rect x="211.901" y="244.714" width="92.1182" height="138.177" fill="#0B4D43" fill-opacity="0.8"/>
<path d="M211.901 244.714H304.02L345.473 299.985H253.355L211.901 244.714Z" fill="#0B4D43"/>
<path d="M82.0646 244.714H211.901L170.168 299.985H40.3313L82.0646 244.714Z" fill="#95E2BF"/>
<path d="M257.961 121.605C257.961 161.878 216.521 230.897 192.902 230.897C169.283 230.897 127.844 161.878 127.844 121.605C127.844 85.9375 156.971 57.0234 192.902 57.0234C228.833 57.0234 257.961 85.9375 257.961 121.605Z" fill="#0B4D43"/>
<path d="M271.778 121.506C271.778 78.2621 236.464 43.2058 192.902 43.2058C149.34 43.2058 114.026 78.2621 114.026 121.506" stroke="#95E2BF" stroke-width="1.15148" stroke-linecap="round" stroke-dasharray="9.21 13.82"/>
<ellipse cx="192.902" cy="121.506" rx="25.9083" ry="25.3325" fill="white"/>
<path d="M100.208 350.65C100.208 349.378 101.239 348.347 102.511 348.347H143.964C145.236 348.347 146.267 349.378 146.267 350.65C146.267 351.922 145.236 352.953 143.964 352.953H102.511C101.239 352.953 100.208 351.922 100.208 350.65Z" fill="white"/>
<path d="M100.208 362.165C100.208 360.893 101.239 359.862 102.511 359.862H125.541C126.813 359.862 127.844 360.893 127.844 362.165C127.844 363.437 126.813 364.468 125.541 364.468H102.511C101.239 364.468 100.208 363.437 100.208 362.165Z" fill="white"/>
</svg>
