<svg width="387" height="383" viewBox="0 0 387 383" fill="none" xmlns="http://www.w3.org/2000/svg">
<rect x="0.892883" y="0.601074" width="385.745" height="382.291" rx="27.6355" fill="#F3FFF0"/>
<path d="M318.701 171.02V108.84C318.701 92.3055 305.297 78.9016 288.762 78.9016H98.7686C82.2341 78.9016 68.8302 92.3055 68.8302 108.84V171.02" stroke="#95E2BF" stroke-width="1.15148" stroke-dasharray="9.21 13.82"/>
<rect x="82.6479" y="129.567" width="222.235" height="253.325" fill="#0B4D43"/>
<path d="M82.6479 111.143C82.6479 100.968 90.8964 92.7192 101.072 92.7192H286.459C296.635 92.7192 304.883 100.968 304.883 111.143V129.567H82.6479V111.143Z" fill="#0B4D43"/>
<rect x="163.251" y="108.84" width="41.4532" height="4.60591" rx="2.30296" fill="white"/>
<rect x="209.31" y="108.84" width="13.8177" height="4.60591" rx="2.30296" fill="white"/>
<rect x="49.2551" y="171.02" width="138.177" height="188.842" rx="9.21182" fill="#95E2BF"/>
<rect x="76.8905" y="232.048" width="52.968" height="54.1195" fill="#0B4D43" fill-opacity="0.8"/>
<path d="M106.152 207.867H159.797L130.536 232.048H76.8905L106.152 207.867Z" fill="#0B4D43"/>
<path d="M129.859 232.336L159.797 207.867V261.699L129.859 286.168V232.336Z" fill="#0B4D43"/>
<rect x="67.6787" y="325.318" width="101.33" height="4.60591" rx="2.30296" fill="white"/>
<rect x="88.4053" y="336.833" width="59.8768" height="4.60591" rx="2.30296" fill="white"/>
<rect x="200.099" y="171.02" width="138.177" height="188.842" rx="9.21182" fill="#95E2BF"/>
<rect x="227.734" y="232.048" width="52.968" height="54.1195" fill="#0B4D43" fill-opacity="0.8"/>
<path d="M256.995 207.867H310.641L281.379 232.048H227.734L256.995 207.867Z" fill="#0B4D43"/>
<path d="M280.702 232.336L310.641 207.867V261.699L280.702 286.168V232.336Z" fill="#0B4D43"/>
<rect x="218.522" y="325.318" width="101.33" height="4.60591" rx="2.30296" fill="white"/>
<rect x="239.249" y="336.833" width="59.8768" height="4.60591" rx="2.30296" fill="white"/>
</svg>
