<svg width="31" height="31" viewBox="0 0 31 31" fill="none" xmlns="http://www.w3.org/2000/svg">
<path opacity="0.5" d="M3.00024 14.8301C3.06274 17.7526 3.23774 22.7513 3.26274 23.3026C3.35149 24.4813 3.80274 25.6726 4.50524 26.5126C5.48274 27.6913 6.68649 28.2176 8.36524 28.2176C10.6852 28.2301 13.2427 28.2301 15.7265 28.2301C18.2202 28.2301 20.6402 28.2301 22.684 28.2176C24.339 28.2176 25.5802 27.6776 26.5452 26.5126C27.2477 25.6726 27.699 24.4688 27.7627 23.3026C27.7877 22.8388 27.9127 17.4126 27.9877 14.8301H3.00024Z" fill="white"/>
<path d="M14.5566 20.2122V21.8297C14.5566 22.3472 14.9766 22.7672 15.4941 22.7672C16.0116 22.7672 16.4316 22.3472 16.4316 21.8297V20.2122C16.4316 19.6947 16.0116 19.2747 15.4941 19.2747C14.9766 19.2747 14.5566 19.6947 14.5566 20.2122Z" fill="white"/>
<path fill-rule="evenodd" clip-rule="evenodd" d="M13.2642 19.1774C13.1392 19.6312 12.703 19.9212 12.2305 19.8587C9.04174 19.4137 5.99424 18.2824 3.42174 16.5837C3.15799 16.4112 3.00049 16.1162 3.00049 15.8012V11.4687C3.00049 8.84367 5.14049 6.70867 7.77174 6.70867H10.2305C10.4655 4.89367 12.003 3.48242 13.8805 3.48242H17.108C18.9842 3.48242 20.523 4.89367 20.758 6.70867H23.2292C25.853 6.70867 27.988 8.84367 27.988 11.4687V15.8012C27.988 16.1162 27.8292 16.4099 27.568 16.5837C24.9905 18.2899 21.9305 19.4262 18.7205 19.8699C18.6767 19.8762 18.6342 19.8787 18.5917 19.8787C18.168 19.8787 17.7892 19.5924 17.683 19.1724C17.4305 18.1774 16.5267 17.4812 15.488 17.4812C14.4355 17.4812 13.5417 18.1624 13.2642 19.1774ZM17.108 5.35742H13.8805C13.0392 5.35742 12.3367 5.93242 12.1267 6.70867H18.8605C18.6505 5.93242 17.948 5.35742 17.108 5.35742Z" fill="white"/>
</svg>
