<svg width="24" height="24" viewBox="0 0 24 24" fill="none" xmlns="http://www.w3.org/2000/svg">
<path d="M20.9318 10.0962H20.1589V10.0564H11.5228V13.8947H16.9458C16.1546 16.129 14.0287 17.7329 11.5228 17.7329C8.34326 17.7329 5.76538 15.1551 5.76538 11.9755C5.76538 8.79601 8.34326 6.21814 11.5228 6.21814C12.9904 6.21814 14.3257 6.77181 15.3423 7.6762L18.0565 4.96207C16.3427 3.36488 14.0503 2.37988 11.5228 2.37988C6.22358 2.37988 1.92712 6.67634 1.92712 11.9755C1.92712 17.2747 6.22358 21.5712 11.5228 21.5712C16.822 21.5712 21.1184 17.2747 21.1184 11.9755C21.1184 11.3321 21.0522 10.7041 20.9318 10.0962Z" fill="#FFC107"/>
<path d="M3.03352 7.50924L6.18617 9.82131C7.03923 7.70931 9.10517 6.21814 11.5228 6.21814C12.9904 6.21814 14.3257 6.77181 15.3423 7.6762L18.0565 4.96207C16.3427 3.36488 14.0503 2.37988 11.5228 2.37988C7.8371 2.37988 4.64079 4.4607 3.03352 7.50924Z" fill="#FF3D00"/>
<path d="M11.5227 21.5713C14.0013 21.5713 16.2534 20.6227 17.9561 19.0802L14.9863 16.5671C13.9905 17.3244 12.7737 17.734 11.5227 17.733C9.02691 17.733 6.90771 16.1416 6.10935 13.9207L2.98021 16.3316C4.56829 19.4391 7.79339 21.5713 11.5227 21.5713Z" fill="#0B4D43"/>
<path d="M20.9318 10.096H20.1589V10.0562H11.5228V13.8944H16.9457C16.5673 14.9578 15.8856 15.887 14.9849 16.5673L14.9863 16.5663L17.9562 19.0794C17.746 19.2704 21.1184 16.7731 21.1184 11.9753C21.1184 11.3319 21.0522 10.7039 20.9318 10.096Z" fill="#1976D2"/>
</svg>
