<svg width="23" height="15" viewBox="0 0 23 15" fill="none" xmlns="http://www.w3.org/2000/svg">
<path fill-rule="evenodd" clip-rule="evenodd" d="M10.3 7.50922V7.95173C10.3125 9.70673 10.4124 11.273 10.5999 12.2655C10.5999 12.2843 10.8 13.268 10.925 13.5955C11.125 14.0692 11.4875 14.4717 11.9375 14.7267C12.3 14.908 12.6751 15.0005 13.0751 15.0005C13.3876 14.9855 13.9 14.8292 14.2625 14.698L14.575 14.5805C16.5875 13.778 20.45 11.1543 21.9375 9.55051L22.05 9.43797L22.525 8.91299C22.8375 8.51174 23 8.01924 23 7.49049C23 7.01674 22.85 6.543 22.5625 6.1605C22.475 6.03675 22.3375 5.87798 22.2125 5.74298L21.7375 5.24673C20.1125 3.59548 16.5875 1.27798 14.75 0.510475C14.75 0.492975 13.6126 0.0179883 13.0751 0.000488281H13C12.175 0.000488281 11.4 0.474235 11 1.23923C10.8875 1.44923 10.7875 1.85923 10.7 2.21923L10.5626 2.89924C10.4001 3.99174 10.3 5.66922 10.3 7.50922ZM2.375 5.60298C1.3375 5.60298 0.5 6.45174 0.5 7.50049C0.5 8.54799 1.3375 9.39674 2.375 9.39674L6.99994 8.98799C7.81244 8.98799 8.47501 8.32299 8.47501 7.50049C8.47501 6.67799 7.81244 6.01173 6.99994 6.01173L2.375 5.60298Z" fill="white"/>
</svg>
