<svg width="16" height="17" viewBox="0 0 16 17" fill="none" xmlns="http://www.w3.org/2000/svg">
<path fill-rule="evenodd" clip-rule="evenodd" d="M12.6023 4.66342V5.9412C14.0376 6.38921 15.0833 7.68853 15.0833 9.24042V13.3545C15.0833 15.2757 13.4905 16.8334 11.5269 16.8334H4.474C2.50947 16.8334 0.916672 15.2757 0.916672 13.3545V9.24042C0.916672 7.68853 1.96329 6.38921 3.39774 5.9412V4.66342C3.40621 2.17907 5.46389 0.166748 7.9873 0.166748C10.5446 0.166748 12.6023 2.17907 12.6023 4.66342ZM8.00424 1.61595C9.72321 1.61595 11.1204 2.98234 11.1204 4.66342V5.7615H4.87961V4.64686C4.88808 2.97406 6.28527 1.61595 8.00424 1.61595ZM8.74094 12.2125C8.74094 12.6183 8.41069 12.9413 7.99577 12.9413C7.58932 12.9413 7.25907 12.6183 7.25907 12.2125V10.3741C7.25907 9.97661 7.58932 9.65365 7.99577 9.65365C8.41069 9.65365 8.74094 9.97661 8.74094 10.3741V12.2125Z" fill="#D9D8D6"/>
</svg>
