<svg width="240" height="113" viewBox="0 0 240 113" fill="none" xmlns="http://www.w3.org/2000/svg">
<path d="M128.39 28.2133C119.295 28.2133 110.504 32.5903 104.175 39.2789C109.897 26.6785 114.085 13.4151 116.434 0H105.16L95.2128 56.4077C92.4653 71.9828 102.868 84.6021 118.443 84.6021C134.018 84.6021 148.873 71.9828 151.62 56.4077C154.368 40.8326 143.966 28.2133 128.39 28.2133ZM120.432 73.3281C111.11 73.3281 104.857 65.73 106.487 56.4077C108.135 47.0854 117.06 39.4873 126.382 39.4873C135.704 39.4873 141.957 47.0854 140.328 56.4077C138.679 65.73 129.755 73.3281 120.432 73.3281Z" fill="#0B4D43"/>
<path d="M176.48 11.3308H165.206L163.217 22.6048C169.45 22.6048 175.381 17.5457 176.48 11.3308Z" fill="#25CE7C"/>
<path d="M184.798 28.2134H162.231L152.284 84.6211H163.558C166.286 69.1217 166.551 53.793 164.391 39.5063H171.516C177.75 39.5063 183.68 34.4472 184.779 28.2323L184.798 28.2134Z" fill="#0B4D43"/>
<path d="M86.2315 11.3308H74.9575L72.968 22.6048C79.2019 22.6048 85.1325 17.5457 86.2315 11.3308Z" fill="#25CE7C"/>
<path d="M62.0353 84.6021H73.3093C76.0378 69.1028 76.303 53.774 74.143 39.4873H81.2674C87.5012 39.4873 93.4319 34.4283 94.5308 28.2134H71.964L62.0164 84.6211L62.0353 84.6021Z" fill="#0B4D43"/>
<path d="M209.374 28.2134C193.798 28.2134 178.943 40.8326 176.196 56.4077L166.248 112.815H177.522C179.891 99.4004 180.402 86.1369 179.114 73.5366C183.093 80.2252 190.331 84.6021 199.426 84.6021C215.001 84.6021 229.856 71.9829 232.604 56.4077C235.351 40.8326 224.949 28.2134 209.374 28.2134ZM201.415 73.3282C192.093 73.3282 185.84 65.7301 187.47 56.4077C189.118 47.0854 198.043 39.4873 207.365 39.4873C216.687 39.4873 222.94 47.0854 221.311 56.4077C219.662 65.7301 210.738 73.3282 201.415 73.3282Z" fill="#0B4D43"/>
<path d="M38.142 28.2133C29.047 28.2133 20.2552 32.5903 13.9267 39.2789C19.6489 26.6785 23.8364 13.4151 26.1859 0H14.9119L4.96432 56.4077L0 84.6021H11.274L16.2383 56.4077C17.8868 47.0854 26.8112 39.4873 36.1335 39.4873C45.4559 39.4873 51.7086 47.0854 50.0791 56.4077L45.1148 84.6021H56.3887L61.3531 56.4077C64.1005 40.8326 53.6981 28.2133 38.123 28.2133H38.142Z" fill="#0B4D43"/>
<path d="M233.267 84.602C232.206 84.602 231.296 84.3557 230.538 83.863C229.761 83.3704 229.212 82.6883 228.871 81.8356C228.53 80.983 228.454 80.0166 228.643 78.9555C228.833 77.8945 229.25 76.9281 229.894 76.0755C230.538 75.2228 231.334 74.5407 232.281 74.048C233.229 73.5554 234.214 73.3091 235.275 73.3091C236.336 73.3091 237.246 73.5554 238.004 74.048C238.781 74.5407 239.33 75.2039 239.671 76.0755C240.012 76.9281 240.088 77.8945 239.899 78.9555C239.709 80.0166 239.292 80.983 238.648 81.8356C238.004 82.6883 237.208 83.3704 236.261 83.863C235.313 84.3557 234.328 84.602 233.267 84.602ZM233.399 83.8251C234.252 83.8251 235.105 83.6167 235.901 83.1999C236.715 82.783 237.397 82.1956 237.966 81.4567C238.515 80.7177 238.875 79.884 239.046 78.9745C239.216 78.065 239.141 77.2313 238.837 76.4923C238.534 75.7534 238.061 75.166 237.397 74.7491C236.734 74.3323 235.976 74.1238 235.105 74.1238C234.233 74.1238 233.399 74.3323 232.604 74.7491C231.789 75.166 231.107 75.7534 230.538 76.4923C229.989 77.2313 229.629 78.065 229.458 78.9745C229.288 79.884 229.364 80.7177 229.667 81.4567C229.97 82.1956 230.444 82.783 231.107 83.1999C231.77 83.6167 232.528 83.8251 233.399 83.8251ZM231.637 81.8735L232.679 75.9997H235.199C235.578 75.9997 235.901 76.0755 236.185 76.246C236.469 76.4165 236.658 76.6439 236.772 76.9281C236.886 77.2123 236.905 77.5534 236.848 77.8945C236.791 78.2355 236.639 78.5766 236.431 78.8798C236.204 79.164 235.938 79.3913 235.616 79.5429C235.294 79.6945 234.934 79.7892 234.555 79.7892H234.347L234.385 79.524L236.317 81.8546H235.332L233.608 79.7892H232.793L232.433 81.8546H231.637V81.8735ZM234.65 79.0882C235.029 79.0882 235.332 78.9745 235.597 78.7661C235.863 78.5576 235.995 78.2734 236.071 77.9134C236.147 77.5534 236.071 77.2502 235.901 77.0418C235.73 76.8334 235.446 76.7197 235.067 76.7197H233.324L232.907 79.0692H234.65V79.0882Z" fill="#0B4D43"/>
</svg>
